<?xml version="1.0" encoding="iso-8859-1"?>
<!-- Generator: Adobe Illustrator 18.1.1, SVG Export Plug-In . SVG Version: 6.00 Build 0)  -->
<svg version="1.1" id="Capa_1" xmlns="http://www.w3.org/2000/svg" xmlns:xlink="http://www.w3.org/1999/xlink" x="0px" y="0px"
	 viewBox="0 0 28.001 28.001" style="enable-background:new 0 0 28.001 28.001;" xml:space="preserve">
<g>
	<g>
		<circle style="fill:#010002;" cx="7" cy="23.001" r="3"/>
		<circle style="fill:#010002;" cx="21" cy="23.001" r="3"/>
		<path style="fill:#010002;" d="M27.895,2.555c-0.244-0.494-0.846-0.696-1.34-0.449l-3.998,2c-0.344,0.169-0.556,0.515-0.556,0.896
			v1H2.387L1.948,4.685C1.773,4.16,1.207,3.878,0.682,4.053c-0.523,0.175-0.805,0.741-0.63,1.265H0.05l4.001,12
			c0.136,0.41,0.517,0.683,0.949,0.683h18.002c0.266,0,0.518-0.104,0.706-0.292s0.293-0.44,0.293-0.706V5.62l3.447-1.726
			C27.939,3.649,28.143,3.047,27.895,2.555z M22,16.001H5.719l-2.666-8H22V16.001z"/>
	</g>
</g>
<g>
</g>
<g>
</g>
<g>
</g>
<g>
</g>
<g>
</g>
<g>
</g>
<g>
</g>
<g>
</g>
<g>
</g>
<g>
</g>
<g>
</g>
<g>
</g>
<g>
</g>
<g>
</g>
<g>
</g>
</svg>
